<svg width="205" height="140" viewBox="0 0 205 140" fill="none" xmlns="http://www.w3.org/2000/svg">
<path d="M53.1869 74.824C53.3969 77.4956 54.9294 79.5515 56.6094 79.4159C58.2895 79.2803 59.4807 77.0049 59.2702 74.3323C59.2006 73.2636 58.8791 72.2273 58.3326 71.3101L57.3013 60.0017L52.0677 60.6046L53.6401 71.6886C53.2437 72.6821 53.0883 73.7572 53.1869 74.824Z" fill="#FFB6B6"/>
<path d="M46.9349 22.0663C46.9349 22.0663 51.8272 19.4455 54.3078 23.362C56.7885 27.2785 58.5006 69.636 58.5006 69.636L51.625 70.3789L50.3216 40.5307L46.9349 22.0663Z" fill="#E6E6E6"/>
<path d="M36.781 137.584L40.7641 137.584L42.6589 122.036L36.7802 122.036L36.781 137.584Z" fill="#FFB6B6"/>
<path d="M50.4278 137.493C50.5518 137.704 50.6173 138.386 50.6173 138.632C50.6173 139.388 50.012 140 49.2654 140H36.9299C36.4206 140 36.0077 139.582 36.0077 139.067V138.547C36.0077 138.547 35.3974 136.985 36.6538 135.06C36.6538 135.06 38.2152 136.567 40.5485 134.206L41.2365 132.945L46.217 136.631L48.9776 136.975C49.5816 137.05 50.1171 136.963 50.4278 137.493Z" fill="#2F2E41"/>
<path d="M59.8309 136.917L63.6901 135.919L61.7234 120.38L56.0276 121.853L59.8309 136.917Z" fill="#FFB6B6"/>
<path d="M73.0309 133.41C73.2028 133.584 73.4331 134.228 73.4932 134.466C73.678 135.198 73.2414 135.944 72.5179 136.131L60.5663 139.22C60.0728 139.348 59.5705 139.046 59.4445 138.547L59.3174 138.043C59.3174 138.043 58.3441 136.683 59.0905 134.503C59.0905 134.503 60.972 135.572 62.6552 132.7L63.0133 131.306L68.7404 133.63L71.4993 133.271C72.1028 133.193 72.6004 132.975 73.0309 133.41Z" fill="#2F2E41"/>
<path d="M33.4856 18.724L33.2968 17.337L35.5414 11.7892L41.7088 11.0957L43.0405 19.0381L33.4856 18.724Z" fill="#FFB6B6"/>
<path opacity="0.1" d="M33.4856 18.724L33.2968 17.337L35.5414 11.7892L41.7088 11.0957L43.0405 19.0381L33.4856 18.724Z" fill="black"/>
<path d="M26.2904 57.9052L23.5493 65.5335L25.6051 69.6944L35.8841 130.027H42.7179L41.3663 76.6291L57.1274 130.027H63.891L58.4521 93.9661L54.3863 60.6792L51.9203 59.1375L39.9957 52.3574L26.2904 57.9052Z" fill="#212658"/>
<path d="M43.7645 63.1066L39.6529 63.8001L34.1708 50.624H46.5056L43.7645 63.1066Z" fill="#E6E6E6"/>
<path d="M51.9877 59.6391L43.7645 63.1065L41.0235 56.8652L39.6529 63.7999L25.2623 59.112L27.3181 50.6239L25.2623 22.8847L32.5193 17.9887L33.4855 17.3369L42.394 18.0304L43.1752 18.4603L48.5614 21.4978L49.932 44.3826L51.9877 59.6391Z" fill="#212658"/>
<path d="M43.1752 18.4603L39.3103 35.0206L32.5193 17.9887L33.4855 17.3369L42.394 18.0304L43.1752 18.4603Z" fill="#E6E6E6"/>
<path d="M36.5693 17.3369L35.1987 19.7256L36.5693 20.5218L35.884 35.0637L38.6251 38.8347L41.3661 33.2612L39.3103 20.5218L39.9956 17.3369H36.5693Z" fill="#212658"/>
<path d="M38.6251 15.95C42.2205 15.95 45.1352 13.0004 45.1352 9.36197C45.1352 5.72349 42.2205 2.77393 38.6251 2.77393C35.0298 2.77393 32.1151 5.72349 32.1151 9.36197C32.1151 13.0004 35.0298 15.95 38.6251 15.95Z" fill="#FFB6B6"/>
<path d="M34.4647 9.93985L35.8713 10.5611L36.4852 6.83365C36.4852 6.83365 38.9407 5.59117 40.7824 6.21241C42.6241 6.83365 45.6935 6.21241 45.6935 6.21241C45.6935 6.21241 45.6935 0 41.3963 0C37.0991 0 32.8019 0.621241 32.8019 2.48496C32.8019 4.34868 30.9602 6.21241 30.9602 6.21241C30.9602 6.21241 28.5047 9.93985 30.9602 12.4248C33.4158 14.9098 34.6436 14.9098 34.6436 14.9098L34.4647 9.93985Z" fill="#2F2E41"/>
<path d="M21.8327 74.629C21.7614 77.3081 23.0695 79.517 24.7543 79.5627C26.4391 79.6084 27.8623 77.4738 27.9333 74.7937C27.9762 73.7235 27.7652 72.6585 27.318 71.6878L27.4788 60.3325L22.2116 60.3697L22.6123 71.5601C22.114 72.5054 21.8467 73.5577 21.8327 74.629Z" fill="#FFB6B6"/>
<path d="M28.3494 21.4849C28.3494 21.4849 23.8952 20.0979 21.8394 24.2588C19.7836 28.4196 22.5247 70.7218 22.5247 70.7218H29.4394L27.6042 40.9022L28.3494 21.4849Z" fill="#E6E6E6"/>
<path d="M192.274 69.7565L175.664 64.6106C175.296 64.4968 174.911 64.4553 174.528 64.4883L90.3425 71.7388C89.1421 71.8422 88.8405 73.4806 89.9234 74.0145L92.6201 75.344H92.5482V138.987H95.0892V76.5613L103.541 80.728C104.187 81.0468 104.909 81.1769 105.624 81.1037L106.524 81.0118V138.987H109.065V80.7521L174.178 74.0962V138.987H176.719V73.8364L187.518 72.7325V138.987H190.059V72.4728L192.029 72.2714C193.413 72.13 193.604 70.1682 192.274 69.7565Z" fill="#3F3D56"/>
<path d="M114.782 71.4866C116.37 71.4866 139.874 68.5938 139.874 68.5938L143.368 73.4152L118.911 78.2367L114.782 71.4866Z" fill="white"/>
<path d="M140.578 136.516L136.495 136.508L134.579 120.565L140.606 120.576L140.578 136.516Z" fill="#A0616A"/>
<path d="M126.587 136.398C126.46 136.614 126.392 137.313 126.391 137.565C126.39 138.34 127.009 138.969 127.775 138.97L140.421 138.992C140.943 138.993 141.367 138.566 141.368 138.037L141.369 137.504C141.369 137.504 141.998 135.904 140.713 133.928C140.713 133.928 139.109 135.471 136.722 133.046L136.018 131.751L130.906 135.522L128.075 135.869C127.456 135.945 126.907 135.855 126.587 136.398Z" fill="#2F2E41"/>
<path d="M162.495 129.102L159.273 131.561L148.366 120.156L153.122 116.526L162.495 129.102Z" fill="#A0616A"/>
<path d="M151.402 137.455C151.429 137.702 151.788 138.294 151.936 138.493C152.391 139.104 153.25 139.226 153.854 138.765L163.831 131.148C164.243 130.834 164.325 130.241 164.015 129.824L163.701 129.404C163.701 129.404 163.253 127.763 161.076 126.982C161.076 126.982 160.722 129.165 157.411 128.696L156.094 128.101L154.288 134.158L152.263 136.14C151.82 136.574 151.334 136.835 151.402 137.455Z" fill="#2F2E41"/>
<path d="M153.961 46.7036C153.961 50.5145 150.908 53.6038 147.142 53.6038C143.376 53.6038 140.324 50.5145 140.324 46.7036C140.324 42.8928 143.376 39.8035 147.142 39.8035C150.908 39.8035 153.961 42.8928 153.961 46.7036Z" fill="#A0616A"/>
<path d="M153.318 86.4884C153.318 86.4884 128.213 85.0504 126.792 87.9265C125.371 90.8026 134.475 130.309 134.475 130.309L142.596 128.586L138.634 100.869C138.634 100.869 159.584 106.484 162.426 99.7727C165.268 93.0618 164.45 90.5629 164.45 90.5629L153.318 86.4884Z" fill="#2F2E41"/>
<path d="M159.75 81.6606C159.75 81.6606 135.164 86.9945 134.545 90.1485C133.927 93.3026 153.033 128.964 153.033 128.964L160.415 125.129L149.348 99.4598C149.348 99.4598 171.019 99.2662 172.006 92.0336C172.992 84.8009 171.55 82.6101 171.55 82.6101L159.75 81.6606Z" fill="#2F2E41"/>
<path d="M162.555 54.6118H150.743L142.661 68.0337C142.661 68.0337 140.766 76.7073 142.661 77.6433C144.555 78.5794 144.555 88.6458 144.555 88.6458L164.45 90.5632C164.45 90.5632 167.292 60.364 166.344 57.4879C165.397 54.6118 162.555 54.6118 162.555 54.6118Z" fill="#4430A8"/>
<path d="M143.845 63.48L142.661 77.6435L129.341 71.9228L126.162 70.3049C125.54 69.4833 124.732 68.8245 123.806 68.3837C121.504 67.2483 119.059 67.5295 118.346 69.0116C117.632 70.4938 118.919 72.6154 121.22 73.7502C122.134 74.2166 123.145 74.4547 124.168 74.4446L133.47 79.7908L133.481 79.7698L133.522 79.8443L148.108 86.0095L151.464 67.4161L143.845 63.48Z" fill="#A0616A"/>
<path d="M142.424 47.6611C142.424 47.6611 135.319 48.6198 138.161 42.3882C138.161 42.3882 137.727 39.0101 139.839 38.7818C141.95 38.5534 144.792 34.7186 144.792 34.7186C144.792 34.7186 151.308 31.3632 154.682 34.7186C158.055 38.0741 168.002 57.7275 168.002 57.7275L161.371 64.9177C161.371 64.9177 157.384 54.3116 152.746 55.5402C148.108 56.7688 143.845 60.4318 143.845 60.4318C143.845 60.4318 139.138 58.0481 141.254 55.9704C143.371 53.8927 142.424 47.6611 142.424 47.6611Z" fill="#2F2E41"/>
<path d="M151.897 58.2067C151.897 58.2067 148.581 53.8925 146.213 57.248C143.845 60.6034 141.95 64.9176 141.95 64.9176L151.423 68.2731L151.897 58.2067Z" fill="#4430A8"/>
<path d="M187.867 138.033L176.86 102.631L176.862 102.63H176.887L176.843 102.573L176.842 102.571L176.058 100.05L176.058 100.049C177.253 99.0079 178.066 97.5197 178.228 95.8064L173.196 67.8034C173.543 64.1262 170.757 60.9119 167.108 60.7801L155.756 60.7511C152.529 60.6354 149.733 62.9947 149.263 66.2284L149.012 67.9448L145.534 91.8882C145.407 92.7496 145.458 93.5983 145.658 94.3922L143.155 94.7233L142.396 94.8261L139.395 95.2215L139.385 95.2247L139.01 95.2729H138.604V105.559H138.629V138.435C138.629 138.647 138.801 138.82 139.01 138.82C139.223 138.82 139.395 138.647 139.395 138.435V105.559H143.848L148.291 138.396C148.32 138.589 148.482 138.73 148.673 138.73C148.689 138.73 148.708 138.73 148.723 138.727C148.933 138.698 149.079 138.502 149.051 138.29L144.623 105.559H165.99C168.111 105.559 170.077 104.877 171.678 103.711L180.149 138.336C180.193 138.511 180.349 138.628 180.52 138.628C180.551 138.628 180.583 138.624 180.615 138.616C180.819 138.563 180.943 138.352 180.891 138.145L172.337 103.185C172.451 103.089 172.565 102.987 172.672 102.881L176.073 102.679L187.137 138.266C187.188 138.431 187.339 138.537 187.502 138.537C187.54 138.537 187.579 138.531 187.617 138.519C187.818 138.455 187.93 138.237 187.867 138.033ZM175.331 100.599C175.36 100.583 175.385 100.564 175.41 100.548L175.492 100.81L175.331 100.599Z" fill="#E6E6E6"/>
</svg>
