<svg width="93" height="140" viewBox="0 0 93 140" fill="none" xmlns="http://www.w3.org/2000/svg">
<path d="M25.453 50.2192C39.5103 50.2192 50.906 39.3809 50.906 26.0111C50.906 12.6413 39.5103 1.80298 25.453 1.80298C11.3957 1.80298 0 12.6413 0 26.0111C0 39.3809 11.3957 50.2192 25.453 50.2192Z" fill="#E4E4E4"/>
<path d="M25.4534 46.1843C37.1678 46.1843 46.6642 37.1523 46.6642 26.0108C46.6642 14.8694 37.1678 5.8374 25.4534 5.8374C13.739 5.8374 4.24255 14.8694 4.24255 26.0108C4.24255 37.1523 13.739 46.1843 25.4534 46.1843Z" fill="#4430A8"/>
<path d="M23.6505 33.3067C23.6126 33.3067 23.5746 33.3058 23.5366 33.3041C23.2011 33.2887 22.8732 33.2045 22.5751 33.0572C22.2771 32.9099 22.0161 32.7031 21.81 32.4509L18.5564 28.4722C18.1775 28.0078 18.0078 27.4195 18.0844 26.8363C18.1611 26.2531 18.4778 25.7226 18.9651 25.3612L19.0822 25.2745C19.5705 24.9142 20.1891 24.7528 20.8023 24.8257C21.4155 24.8986 21.9733 25.1998 22.3534 25.6633C22.5368 25.8876 22.7689 26.0715 23.034 26.2025C23.299 26.3335 23.5907 26.4085 23.889 26.4223C24.1874 26.4361 24.4853 26.3885 24.7625 26.2826C25.0397 26.1768 25.2896 26.0152 25.495 25.809L32.1016 19.1762C32.3121 18.9648 32.5643 18.795 32.8439 18.6763C33.1234 18.5577 33.4248 18.4926 33.7308 18.4847C34.0369 18.4768 34.3415 18.5264 34.6274 18.6305C34.9132 18.7346 35.1748 18.8913 35.397 19.0915L35.5048 19.1887C35.9536 19.5931 36.2151 20.1505 36.2317 20.7382C36.2484 21.3259 36.0189 21.8959 35.5938 22.3227L25.3421 32.6144C25.1245 32.8331 24.8622 33.0073 24.5713 33.1264C24.2805 33.2454 23.9671 33.3068 23.6505 33.3067Z" fill="white"/>
<path d="M81.8738 21.1096H65.1206V7.25222C65.1378 6.39419 65.5121 5.57767 66.1613 4.98166C66.8105 4.38565 67.6817 4.05877 68.5839 4.07269H74.1527C78.4102 4.07269 81.8738 7.25256 81.8738 11.1611V21.1096Z" fill="#2F2E41"/>
<path d="M88.0763 137.068L84.896 137.068L83.3828 125.4L88.0768 125.401L88.0763 137.068Z" fill="#FFB6B6"/>
<path d="M88.8868 140L78.6318 140V139.877C78.6319 138.87 79.0525 137.904 79.801 137.192C80.5495 136.48 81.5648 136.08 82.6234 136.08L88.8871 136.081L88.8868 140Z" fill="#2F2E41"/>
<path d="M58.7612 137.068L55.5807 137.068L54.0677 125.4L58.7617 125.401L58.7612 137.068Z" fill="#FFB6B6"/>
<path d="M59.5729 140L49.3179 140V139.877C49.3179 138.87 49.7385 137.904 50.4871 137.192C51.2356 136.48 52.2508 136.08 53.3094 136.08L59.5731 136.081L59.5729 140Z" fill="#2F2E41"/>
<path d="M62.6018 43.335L60.5265 55.9183L80.2422 56.1649L77.648 44.0753L62.6018 43.335Z" fill="#FFB6B6"/>
<path d="M61.0987 52.8455L54.8193 68.7479L54.041 134.65H59.3591L72.0706 81.7013L83.7445 133.268H88.9328L85.301 75.2863C85.301 75.2863 86.372 63.6487 80.8909 56.7815L79.5567 53.1155L61.0987 52.8455Z" fill="#4430A8"/>
<path d="M88.0337 65.2424C87.4848 65.1001 86.9753 64.8451 86.5412 64.4953C86.1071 64.1455 85.7589 63.7094 85.5211 63.2178C85.2834 62.7261 85.1619 62.1909 85.1652 61.6497C85.1685 61.1086 85.2964 60.5747 85.5401 60.0857L77.1527 34.0781L83.322 32.915L90.9931 58.4079C91.8297 58.8517 92.4661 59.572 92.7816 60.4322C93.0972 61.2925 93.07 62.2329 92.7052 63.0753C92.3404 63.9178 91.6634 64.6037 90.8024 65.0031C89.9414 65.4025 88.9563 65.4877 88.0337 65.2424Z" fill="#FFB6B6"/>
<path d="M76.9337 50.2843L63.3431 50.0347C62.9546 50.0269 62.5796 49.8981 62.2754 49.6682C61.9713 49.4383 61.7547 49.1199 61.659 48.7618C60.9304 46.0182 59.3274 38.8682 60.1777 31.7468C60.3455 30.3672 60.8025 29.0337 61.5217 27.825C62.2409 26.6164 63.2077 25.5572 64.3648 24.7102C65.522 23.8632 66.846 23.2455 68.2586 22.8937C69.6711 22.5419 71.1436 22.4631 72.5887 22.662C74.1131 22.8696 75.5742 23.3814 76.8761 24.1638C78.1779 24.9462 79.2912 25.9816 80.1427 27.202C80.9943 28.4224 81.5649 29.8002 81.8171 31.2451C82.0694 32.69 81.9976 34.1693 81.6065 35.5859C79.8958 41.7648 78.9294 46.1853 78.7344 48.7248C78.7056 49.092 78.5511 49.4401 78.2947 49.7159C78.0383 49.9918 77.6939 50.1802 77.3143 50.2525C77.2014 50.2738 77.0866 50.2846 76.9715 50.2846C76.9589 50.2846 76.9463 50.2845 76.9337 50.2843Z" fill="#E4E4E4"/>
<path d="M35.6518 27.4395C35.7334 27.6136 35.8005 27.7936 35.8523 27.9778L52.8639 33.4757L56.1511 30.7445L61.1333 34.924L55.8081 40.297C55.3779 40.731 54.8113 41.0206 54.1933 41.1223C53.5753 41.224 52.9393 41.1323 52.3807 40.861L34.1773 32.0175C33.519 32.4015 32.7534 32.5858 31.9822 32.5459C31.2111 32.506 30.471 32.2438 29.8604 31.7941C29.2498 31.3444 28.7976 30.7286 28.564 30.0285C28.3304 29.3284 28.3264 28.5772 28.5526 27.875C28.7788 27.1727 29.2245 26.5525 29.8303 26.097C30.4361 25.6415 31.1734 25.3722 31.944 25.3249C32.7147 25.2776 33.4822 25.4546 34.1445 25.8323C34.8069 26.2101 35.3326 26.7706 35.6518 27.4395Z" fill="#FFB6B6"/>
<path d="M52.8988 32.5991C52.9002 32.3763 52.952 32.1564 53.0508 31.9543C53.1497 31.7523 53.2932 31.573 53.4716 31.4285L59.7005 26.3822C60.4887 25.523 61.603 24.9963 62.799 24.9175C63.995 24.8387 65.1751 25.2143 66.0803 25.9619C66.9856 26.7094 67.5421 27.768 67.6279 28.9053C67.7137 30.0426 67.3218 31.1658 66.538 32.0286L62.1023 38.5981C61.9756 38.7856 61.808 38.9449 61.6109 39.0652C61.4137 39.1855 61.1915 39.264 60.9596 39.2953C60.7276 39.3266 60.4913 39.31 60.2667 39.2466C60.0421 39.1832 59.8345 39.0746 59.6581 38.928L53.4566 33.7764C53.2801 33.6299 53.1388 33.4489 53.0426 33.2457C52.9463 33.0425 52.8973 32.822 52.8988 32.5991Z" fill="#E4E4E4"/>
<path d="M76.7764 40.6662C76.5691 40.5625 76.3877 40.4174 76.2447 40.241C76.1016 40.0645 76.0003 39.8608 75.9476 39.6437L74.106 32.0611C73.6674 31.0001 73.689 29.8169 74.1663 28.7711C74.6435 27.7252 75.5373 26.902 76.6517 26.482C77.7662 26.062 79.0102 26.0795 80.1111 26.5306C81.212 26.9818 82.0799 27.8297 82.5244 28.8885L86.6133 35.6585C86.73 35.8517 86.8015 36.0666 86.823 36.2884C86.8445 36.5103 86.8155 36.734 86.7379 36.9442C86.6603 37.1545 86.536 37.3463 86.3734 37.5068C86.2109 37.6672 86.0138 37.7924 85.7958 37.8739L78.1321 40.7374C77.914 40.819 77.6801 40.8549 77.4461 40.8426C77.2121 40.8303 76.9837 40.7701 76.7764 40.6662Z" fill="#E4E4E4"/>
<path d="M83.3701 5.42613C83.9994 4.02505 82.9172 2.24235 80.953 1.44437C78.9889 0.646376 76.8865 1.13527 76.2572 2.53635C75.6279 3.93744 76.7101 5.72014 78.6743 6.51813C80.6384 7.31612 82.7408 6.82721 83.3701 5.42613Z" fill="#2F2E41"/>
<path d="M77.2766 15.841C79.3779 12.1851 77.9652 7.60141 74.1214 5.60295C70.2775 3.60448 65.4581 4.94806 63.3569 8.6039C61.2556 12.2597 62.6683 16.8435 66.5121 18.8419C70.356 20.8404 75.1754 19.4968 77.2766 15.841Z" fill="#FFB6B6"/>
<path d="M74.6686 3.58297H65.5959C64.9307 3.57479 64.2869 3.80607 63.7936 4.23044C63.3002 4.65481 62.9938 5.24089 62.9358 5.87114C62.9123 6.20607 62.9614 6.54201 63.08 6.85815C63.1986 7.17429 63.3843 7.46389 63.6254 7.70901C63.8665 7.95413 64.158 8.14954 64.4817 8.28314C64.8055 8.41674 65.1547 8.48569 65.5076 8.48569C66.1912 8.48569 66.8468 8.74396 67.3301 9.20368C67.8135 9.6634 68.085 10.2869 68.085 10.9371V20.9876H82.2608V10.8039C82.2608 9.8556 82.0644 8.91663 81.6829 8.04055C81.3014 7.16447 80.7421 6.36844 80.0371 5.69792C79.3321 5.0274 78.4952 4.49551 77.574 4.13263C76.6529 3.76975 75.6656 3.58297 74.6686 3.58297Z" fill="#2F2E41"/>
</svg>
