<svg width="155" height="140" viewBox="0 0 155 140" fill="none" xmlns="http://www.w3.org/2000/svg">
<path d="M59.4905 104.904L61.9025 106.943L71.0093 98.3061L67.4494 95.2969L59.4905 104.904Z" fill="#FFB6B6"/>
<path d="M66.6267 104.216L61.5186 100.654L74.9682 79.1138C65.2202 73.3903 58.5164 66.4081 53.0465 58.7386C51.1876 56.1503 50.0544 53.1381 52.6477 51.1963C52.769 51.1056 52.8934 51.0196 53.0211 50.9384C55.9782 49.077 55.0183 51.8667 59.0718 50.4966L62.7343 54.4433L70.6475 62.2212L84.1449 70.9249C86.8592 72.6752 87.6124 76.3569 85.8271 79.1481C85.7328 79.2955 85.6324 79.4386 85.5259 79.5775L66.6267 104.216Z" fill="#2F2E41"/>
<path d="M59.7988 103.244L64.028 106.406L62.5837 108.15L64.1999 114.059C64.2797 114.351 64.2651 114.661 64.1582 114.944C64.0513 115.226 63.8577 115.467 63.6057 115.631C63.3536 115.795 63.0563 115.873 62.7571 115.854C62.458 115.835 62.1726 115.72 61.9428 115.526L57.1472 111.472L57.7493 109.049L55.9979 110.5L54.1898 108.972L59.7988 103.244Z" fill="#2F2E41"/>
<path d="M53.8948 81.7219L27.8086 91.1453L28.5645 93.2807L54.6507 83.8574L53.8948 81.7219Z" fill="#3F3D56"/>
<path d="M59.9973 118.175L53.2003 112.247C52.7274 111.834 52.4361 111.248 52.3906 110.618C52.345 109.989 52.5489 109.366 52.9573 108.888C53.3658 108.411 53.9455 108.116 54.5688 108.07C55.1922 108.024 55.8082 108.229 56.2815 108.642L63.0785 114.57C63.3129 114.775 63.5052 115.024 63.6444 115.303C63.7836 115.582 63.8669 115.887 63.8895 116.199C63.9122 116.511 63.8739 116.824 63.7766 117.121C63.6794 117.418 63.5252 117.693 63.3228 117.93C63.1205 118.166 62.8739 118.36 62.5972 118.501C62.3206 118.641 62.0192 118.725 61.7104 118.748C61.4016 118.771 61.0914 118.732 60.7974 118.634C60.5035 118.535 60.2316 118.38 59.9973 118.175Z" fill="#3F3D56"/>
<path d="M98.6052 49.6811C98.1756 49.8307 97.7188 49.8835 97.2669 49.8355C96.815 49.7875 96.379 49.6401 95.9897 49.4035C95.6003 49.1669 95.267 48.8469 95.0133 48.4662C94.7595 48.0854 94.5916 47.653 94.5211 47.1996L70.2401 40.8837L74.2 36.6865L97.3263 43.5462C98.0882 43.4771 98.8488 43.6929 99.4638 44.1525C100.079 44.6121 100.506 45.2836 100.663 46.0398C100.821 46.796 100.698 47.5843 100.319 48.2555C99.9398 48.9266 99.33 49.4338 98.6052 49.6811Z" fill="#FFB6B6"/>
<path d="M61.7197 20.3562C61.7197 20.3562 57.7716 20.8183 57.8425 25.4142C57.9134 30.0101 67.5915 40.4796 69.1014 42.2143C70.6113 43.9489 85.6797 44.8352 85.6797 44.8352L90.3868 40.6542L76.4298 35.904L61.7197 20.3562Z" fill="#6532AD"/>
<path d="M53.7134 41.9277L52.8227 46.1478C52.8227 46.1478 51.2018 49.66 51.5163 50.5984C51.828 51.5317 65.8582 56.6048 65.8582 56.6048C65.8582 56.6048 67.0603 50.2767 69.0662 46.0082L53.7134 41.9277Z" fill="#FFB6B6"/>
<path d="M98.6778 107.932L90.5749 111.843C90.0108 112.115 89.3627 112.15 88.7732 111.939C88.1838 111.729 87.7012 111.29 87.4317 110.72C87.1622 110.151 87.1278 109.496 87.3361 108.901C87.5444 108.305 87.9784 107.818 88.5425 107.545L96.6454 103.635C97.2095 103.362 97.8576 103.328 98.447 103.538C99.0365 103.749 99.5191 104.187 99.7886 104.757C100.058 105.327 100.092 105.981 99.8842 106.577C99.6758 107.172 99.2419 107.66 98.6778 107.932Z" fill="#3F3D56"/>
<path d="M129.411 139.15C124.35 139.15 119.403 137.634 115.195 134.793C110.987 131.953 107.707 127.916 105.77 123.193C103.833 118.469 103.327 113.272 104.314 108.258C105.301 103.244 107.739 98.6377 111.317 95.0227C114.896 91.4076 119.455 88.9457 124.419 87.9484C129.383 86.951 134.528 87.4629 139.204 89.4193C143.879 91.3758 147.876 94.6889 150.688 98.9397C153.499 103.191 155 108.188 155 113.301C154.992 120.154 152.294 126.724 147.497 131.57C142.7 136.416 136.195 139.142 129.411 139.15ZM129.411 89.8451C124.819 89.8451 120.33 91.2207 116.511 93.7981C112.693 96.3754 109.717 100.039 107.959 104.325C106.202 108.611 105.742 113.327 106.638 117.877C107.534 122.427 109.745 126.606 112.993 129.886C116.24 133.167 120.377 135.401 124.881 136.306C129.385 137.211 134.054 136.746 138.297 134.971C142.54 133.196 146.166 130.189 148.718 126.332C151.269 122.475 152.631 117.94 152.631 113.301C152.624 107.082 150.175 101.12 145.822 96.7229C141.469 92.3256 135.567 89.8521 129.411 89.8451Z" fill="#3F3D56"/>
<path d="M130.541 118.738C132.525 118.738 134.133 117.114 134.133 115.11C134.133 113.106 132.525 111.481 130.541 111.481C128.557 111.481 126.949 113.106 126.949 115.11C126.949 117.114 128.557 118.738 130.541 118.738Z" fill="#3F3D56"/>
<path d="M24.2464 139.501C19.4509 139.501 14.7631 138.065 10.7758 135.373C6.78853 132.682 3.68081 128.857 1.84566 124.381C0.0105043 119.906 -0.469653 114.981 0.465899 110.23C1.40145 105.479 3.7107 101.115 7.10162 97.6892C10.4925 94.2638 14.8128 91.9311 19.5162 90.986C24.2195 90.041 29.0946 90.526 33.5251 92.3798C37.9555 94.2336 41.7423 97.3729 44.4065 101.401C47.0708 105.429 48.4928 110.164 48.4928 115.008C48.4855 121.502 45.9287 127.728 41.3832 132.319C36.8377 136.911 30.6747 139.494 24.2464 139.501ZM24.2464 92.7833C19.8949 92.7833 15.6412 94.0867 12.0231 96.5289C8.405 98.971 5.58503 102.442 3.9198 106.503C2.25457 110.564 1.81887 115.033 2.6678 119.344C3.51673 123.655 5.61215 127.616 8.6891 130.724C11.766 133.832 15.6863 135.949 19.9542 136.806C24.222 137.664 28.6457 137.224 32.666 135.542C36.6862 133.859 40.1223 131.011 42.5399 127.356C44.9574 123.701 46.2478 119.404 46.2478 115.008C46.2412 109.116 43.921 103.467 39.7964 99.3002C35.6718 95.1336 30.0795 92.7899 24.2464 92.7833Z" fill="#3F3D56"/>
<path d="M24.2484 118.637C26.2323 118.637 27.8405 117.012 27.8405 115.008C27.8405 113.004 26.2323 111.38 24.2484 111.38C22.2646 111.38 20.6564 113.004 20.6564 115.008C20.6564 117.012 22.2646 118.637 24.2484 118.637Z" fill="#3F3D56"/>
<path d="M72.9621 118.761C75.2625 118.761 77.1274 116.877 77.1274 114.554C77.1274 112.23 75.2625 110.346 72.9621 110.346C70.6616 110.346 68.7968 112.23 68.7968 114.554C68.7968 116.877 70.6616 118.761 72.9621 118.761Z" fill="#3F3D56"/>
<path d="M25.1703 114.752L23.5323 113.201L52.7706 81.6928L104.948 65.9182L130.843 111.827L128.893 112.95L103.881 68.6081L53.9946 83.6901L25.1703 114.752Z" fill="#3F3D56"/>
<path d="M69.4245 113.319H47.3619V115.587H69.4245V113.319Z" fill="#3F3D56"/>
<path d="M54.5049 70.8323H52.2599V82.6894H54.5049V70.8323Z" fill="#3F3D56"/>
<path d="M98.1578 44.004L96.0215 44.7009L103.345 67.6111L105.482 66.9142L98.1578 44.004Z" fill="#3F3D56"/>
<path d="M54.2782 81.198L52.3409 82.3442L70.7502 114.094L72.6875 112.948L54.2782 81.198Z" fill="#3F3D56"/>
<path d="M114.865 85.824L75.3544 113.041L76.6192 114.915L116.13 87.6977L114.865 85.824Z" fill="#3F3D56"/>
<path d="M57.6885 72.2457H48.7084C48.0832 72.2457 47.4836 71.9948 47.0415 71.5482C46.5994 71.1016 46.3511 70.496 46.3511 69.8644C46.3511 69.2329 46.5994 68.6272 47.0415 68.1806C47.4836 67.734 48.0832 67.4832 48.7084 67.4832H57.6885C58.3137 67.4832 58.9133 67.734 59.3554 68.1806C59.7974 68.6272 60.0458 69.2329 60.0458 69.8644C60.0458 70.496 59.7974 71.1016 59.3554 71.5482C58.9133 71.9948 58.3137 72.2457 57.6885 72.2457Z" fill="#6532AD"/>
<path d="M101.469 46.6185H92.4889C91.8637 46.6185 91.2641 46.3676 90.822 45.921C90.3799 45.4744 90.1316 44.8688 90.1316 44.2372C90.1316 43.6057 90.3799 43 90.822 42.5534C91.2641 42.1068 91.8637 41.856 92.4889 41.856H101.469C102.094 41.856 102.694 42.1068 103.136 42.5534C103.578 43 103.826 43.6057 103.826 44.2372C103.826 44.8688 103.578 45.4744 103.136 45.921C102.694 46.3676 102.094 46.6185 101.469 46.6185Z" fill="#6532AD"/>
<path d="M68.1489 16.9803C71.7631 16.3596 74.1949 12.8967 73.5804 9.24572C72.966 5.59473 69.5379 3.1382 65.9237 3.75891C62.3094 4.37963 59.8776 7.84252 60.4921 11.4935C61.1066 15.1445 64.5346 17.601 68.1489 16.9803Z" fill="#FFB6B6"/>
<path d="M108.127 74.5197L100.63 58.5334L100.732 58.4849C101.251 58.2363 101.814 58.0934 102.388 58.0646C102.962 58.0357 103.537 58.1213 104.078 58.3166C104.619 58.5119 105.117 58.8131 105.544 59.2028C105.97 59.5926 106.316 60.0633 106.562 60.5881L110.31 68.5814C110.557 69.1062 110.698 69.6748 110.727 70.2548C110.755 70.8349 110.67 71.4149 110.477 71.9618C110.284 72.5087 109.986 73.0118 109.6 73.4424C109.214 73.8729 108.748 74.2224 108.228 74.471L108.127 74.5197Z" fill="#3F3D56"/>
<path d="M85.2092 77.3304C84.2653 77.3279 83.3475 77.0177 82.5921 76.4461C81.8367 75.8744 81.2841 75.0718 81.0164 74.1575L80.9846 74.0487L97.7801 69.0427L97.8119 69.1515C97.9746 69.7085 98.0271 70.2924 97.9664 70.8699C97.9057 71.4474 97.733 72.0072 97.4581 72.5173C97.1833 73.0274 96.8116 73.4777 96.3644 73.8427C95.9173 74.2077 95.4033 74.4802 94.8519 74.6445L86.4542 77.1475C86.05 77.2684 85.6307 77.33 85.2092 77.3304Z" fill="#3F3D56"/>
<path d="M87.3658 104.88L90.4219 104.118L89.0091 91.5776L84.4984 92.702L87.3658 104.88Z" fill="#FFB6B6"/>
<path d="M85.9204 101.283L90.6899 99.0381L91.5171 101.152L97.4289 102.538C97.7209 102.606 97.9836 102.767 98.1787 102.997C98.3738 103.227 98.491 103.514 98.5132 103.816C98.5354 104.118 98.4615 104.419 98.3023 104.676C98.143 104.932 97.9068 105.131 97.628 105.242L91.8125 107.564L89.9919 105.873L90.4187 108.12L88.226 108.996L85.9204 101.283Z" fill="#2F2E41"/>
<path d="M90.5938 93.5795L84.0773 97.5272L77.1272 72.7322C65.8525 72.6351 55.4277 71.3598 46.9162 67.4323C44.0325 66.1133 42.7497 62.625 44.0511 59.6409C44.1119 59.5014 44.1779 59.3645 44.249 59.2301C45.9059 56.1338 49.118 54.3155 51.9682 51.0977L66.1065 56.3707L65.0934 60.2167L81.0863 61.0276C84.3025 61.1907 86.7614 64.0127 86.5784 67.3308C86.5688 67.506 86.5517 67.6805 86.5272 67.8545L90.5938 93.5795Z" fill="#2F2E41"/>
<path d="M62.9509 16.9153L67.2957 19.2102C67.5357 19.307 67.7399 19.477 67.8797 19.6965C68.0196 19.9161 68.0881 20.1742 68.0759 20.435L69.2076 25.0097L73.1897 33.524C73.1897 33.524 74.2273 38.0555 72.2472 42.334C70.2671 46.6124 65.8848 57.2781 65.8848 57.2781C63.0265 64.1937 39.5656 58.8531 45.6795 52.9691C46.4069 52.269 50.4957 46.3553 51.9917 46.0154L55.6625 24.7959C55.8475 23.6756 56.2757 22.6106 56.9162 21.6771C57.5568 20.7437 58.3939 19.965 59.3675 19.3969C59.9556 19.061 60.5008 18.8622 60.8744 18.9636C61.7261 19.1641 62.1286 17.2158 62.9509 16.9153Z" fill="#6532AD"/>
<path d="M100.684 45.0322C100.289 45.259 99.8493 45.3955 99.3964 45.4321C98.9434 45.4687 98.488 45.4045 98.0623 45.2441C97.6366 45.0837 97.2508 44.8309 96.9323 44.5036C96.6137 44.1763 96.37 43.7824 96.2185 43.3497L71.2025 41.6407L74.333 36.781L98.3125 39.2385C99.049 39.0294 99.8358 39.1005 100.524 39.4383C101.212 39.7762 101.753 40.3572 102.046 41.0714C102.338 41.7855 102.361 42.5832 102.11 43.3132C101.859 44.0432 101.351 44.6549 100.684 45.0322Z" fill="#FFB6B6"/>
<path d="M59.0977 23.0391C59.0977 23.0391 55.3005 24.225 56.2049 28.7297C57.1093 33.2345 68.5245 41.7328 70.3238 43.1582C72.1231 44.5836 87.0967 42.6623 87.0967 42.6623L90.9646 37.6799L76.3818 35.5969L59.0977 23.0391Z" fill="#6532AD"/>
<path d="M74.1191 8.1515C73.1168 8.6503 71.9818 7.92737 71.1047 7.20843L71.4186 7.47659C69.897 9.00314 69.2005 11.1839 68.8712 13.3269C68.5415 15.4677 68.5245 17.6537 68.1036 19.7803C67.6823 21.9046 66.7853 24.0439 65.0826 25.36C62.8014 27.1228 59.6296 27.0441 56.803 26.5404C56.7653 26.5331 56.7303 26.5276 56.6926 26.5203C57.4291 24.2984 57.7138 21.9491 57.5296 19.6133C56.7972 21.9636 55.5315 24.1085 53.8334 25.8772C51.9577 25.3767 50.1251 24.7236 48.3536 23.9244C47.2074 23.4058 45.9717 22.6933 45.6426 21.4685C45.3127 20.253 46.0368 18.967 47.0146 18.1871C47.9923 17.4073 49.1979 16.9932 50.3152 16.4333C51.4306 15.876 52.532 15.0864 52.9689 13.9072C53.9766 11.1945 50.9959 8.12464 52.1182 5.45667C52.6717 4.14469 54.0527 3.41983 55.3519 2.85855C57.3353 2.00392 59.3736 1.28572 61.4529 0.708851C63.2783 0.202125 65.1855 -0.196738 67.0533 0.103595C68.9211 0.403926 70.7594 1.53055 71.4487 3.31231C72.5723 3.68294 73.7654 4.10145 74.4937 5.04605C75.2216 5.98841 75.1804 7.62418 74.1191 8.1515Z" fill="#2F2E41"/>
<path d="M110.033 68.8355C111.371 68.336 111.845 66.2645 111.093 64.2086C110.34 62.1527 108.646 60.8909 107.309 61.3904C105.971 61.8898 105.497 63.9613 106.249 66.0172C107.002 68.0731 108.696 69.3349 110.033 68.8355Z" fill="#6532AD"/>
</svg>
