<svg width="250" height="250" viewBox="0 0 250 250" fill="none" xmlns="http://www.w3.org/2000/svg">
<ellipse cx="32.1221" cy="37.4758" rx="32.1221" ry="37.4758" fill="url(#paint0_linear_3080_4039)"/>
<path d="M0 113.69C0 102.644 8.9543 93.6896 20 93.6896H44.2442C55.2899 93.6896 64.2442 102.644 64.2442 113.69V226.27C64.2442 237.315 55.2899 246.27 44.2443 246.27H20C8.9543 246.27 0 237.315 0 226.27V113.69Z" fill="url(#paint1_linear_3080_4039)"/>
<path d="M126.471 221.379C126.697 236.148 138.995 248.226 153.368 244.823C176.039 239.455 196.914 227.716 213.388 210.73C236.125 187.288 248.619 155.774 248.12 123.12C247.622 90.4669 234.172 59.3487 210.73 36.6117C193.745 20.137 172.521 9.04031 149.697 4.367C135.227 1.40409 123.303 13.8522 123.529 28.6213C123.754 43.3904 136.326 54.7126 150.104 60.0369C158.743 63.3752 166.712 68.4346 173.489 75.0076C186.748 87.8676 194.355 105.468 194.637 123.937C194.919 142.406 187.852 160.23 174.992 173.489C168.419 180.266 160.608 185.566 152.076 189.167C138.467 194.909 126.246 206.61 126.471 221.379Z" fill="url(#paint2_linear_3080_4039)"/>
<defs>
<linearGradient id="paint0_linear_3080_4039" x1="32.1221" y1="0" x2="32.1221" y2="74.9516" gradientUnits="userSpaceOnUse">
<stop stop-color="#9650FA"/>
<stop offset="1" stop-color="#535EC6"/>
</linearGradient>
<linearGradient id="paint1_linear_3080_4039" x1="32.1221" y1="93.6896" x2="32.1221" y2="246.27" gradientUnits="userSpaceOnUse">
<stop stop-color="#9650FA"/>
<stop offset="1" stop-color="#535EC6"/>
</linearGradient>
<linearGradient id="paint2_linear_3080_4039" x1="248.12" y1="123.12" x2="1.87952" y2="126.88" gradientUnits="userSpaceOnUse">
<stop stop-color="#9650FA"/>
<stop offset="1" stop-color="#535EC6"/>
</linearGradient>
</defs>
</svg>
