<svg width="40" height="40" viewBox="0 0 18 18" fill="none" xmlns="http://www.w3.org/2000/svg">
<path fill-rule="evenodd" clip-rule="evenodd" d="M9 0.875C4.5125 0.875 0.875 4.5125 0.875 9C0.875 13.4875 4.5125 17.125 9 17.125C13.4875 17.125 17.125 13.4875 17.125 9C17.125 4.5125 13.4875 0.875 9 0.875ZM6.8125 5.875C6.3625 5.875 6.1225 6.22417 6.0325 6.40333C5.92558 6.62871 5.8717 6.87557 5.875 7.125C5.875 7.37333 5.92417 7.62917 6.0325 7.84667C6.1225 8.02583 6.36167 8.375 6.8125 8.375C7.2625 8.375 7.5025 8.02583 7.5925 7.84667C7.70083 7.63 7.75 7.37333 7.75 7.125C7.75 6.87667 7.70083 6.62083 7.5925 6.40333C7.5025 6.22417 7.26333 5.875 6.8125 5.875ZM10.4075 6.40333C10.4975 6.22417 10.7367 5.875 11.1875 5.875C11.6375 5.875 11.8775 6.22417 11.9675 6.40333C12.0758 6.62 12.125 6.87667 12.125 7.125C12.125 7.37333 12.0758 7.62917 11.9675 7.84667C11.8775 8.02583 11.6383 8.375 11.1875 8.375C10.7375 8.375 10.4975 8.02583 10.4075 7.84667C10.3006 7.62129 10.2467 7.37443 10.25 7.125C10.25 6.87667 10.2992 6.62083 10.4075 6.40333ZM12.0933 12.0933C12.1547 12.0361 12.204 11.9671 12.2382 11.8904C12.2723 11.8138 12.2907 11.731 12.2922 11.6471C12.2936 11.5632 12.2782 11.4798 12.2468 11.402C12.2153 11.3242 12.1685 11.2535 12.1092 11.1941C12.0498 11.1348 11.9792 11.088 11.9013 11.0566C11.8235 11.0251 11.7401 11.0097 11.6562 11.0112C11.5723 11.0127 11.4896 11.031 11.4129 11.0652C11.3362 11.0993 11.2672 11.1486 11.21 11.21C10.9198 11.5003 10.5753 11.7305 10.1961 11.8876C9.81688 12.0447 9.41045 12.1256 9 12.1256C8.58955 12.1256 8.18312 12.0447 7.80392 11.8876C7.42473 11.7305 7.08019 11.5003 6.79 11.21C6.67152 11.0996 6.51482 11.0395 6.3529 11.0424C6.19098 11.0452 6.03649 11.1108 5.92198 11.2253C5.80747 11.3398 5.74188 11.4943 5.73902 11.6562C5.73616 11.8181 5.79627 11.9749 5.90667 12.0933C6.72712 12.9136 7.8398 13.3745 9 13.3745C10.1602 13.3745 11.2729 12.9136 12.0933 12.0933Z" fill="#35185C"/>
</svg>
