<svg width="94" height="94" viewBox="0 0 94 94" fill="none" xmlns="http://www.w3.org/2000/svg">
<ellipse cx="12" cy="14" rx="12" ry="14" fill="url(#paint0_linear_2024_3763)"/>
<path d="M1.52588e-05 43C1.52588e-05 38.5817 3.58174 35 8.00002 35H16C20.4183 35 24 38.5817 24 43V84C24 88.4183 20.4183 92 16 92H8.00001C3.58174 92 1.52588e-05 88.4183 1.52588e-05 84V43Z" fill="url(#paint1_linear_2024_3763)"/>
<path d="M47.2768 84.6924C47.3443 89.1101 51.008 92.7072 55.3474 91.8763C64.5658 90.1112 73.093 85.5522 79.7164 78.7234C88.2104 69.9661 92.8777 58.1932 92.6914 45.9946C92.5052 33.7961 87.4808 22.1712 78.7234 13.6772C71.8947 7.05377 63.2323 2.75721 53.9643 1.27432C49.6015 0.576265 46.0493 4.28346 46.1168 8.70122L46.1776 12.6832C46.245 17.1009 49.9612 20.5092 54.1921 21.7822C58.1439 22.9712 61.7939 25.0945 64.8111 28.0209C69.7642 32.8251 72.606 39.4002 72.7114 46.2997C72.8167 53.1992 70.1769 59.8579 65.3727 64.8111C62.4463 67.8282 58.8628 70.0619 54.9491 71.371C50.759 72.7725 47.1486 76.2927 47.2161 80.7104L47.2768 84.6924Z" fill="url(#paint2_linear_2024_3763)"/>
<defs>
<linearGradient id="paint0_linear_2024_3763" x1="12" y1="0" x2="12" y2="28" gradientUnits="userSpaceOnUse">
<stop stop-color="#9650FA"/>
<stop offset="1" stop-color="#535EC6"/>
</linearGradient>
<linearGradient id="paint1_linear_2024_3763" x1="12" y1="35" x2="12" y2="92" gradientUnits="userSpaceOnUse">
<stop stop-color="#9650FA"/>
<stop offset="1" stop-color="#535EC6"/>
</linearGradient>
<linearGradient id="paint2_linear_2024_3763" x1="92.6914" y1="45.9946" x2="0.702162" y2="47.3989" gradientUnits="userSpaceOnUse">
<stop stop-color="#9650FA"/>
<stop offset="1" stop-color="#535EC6"/>
</linearGradient>
</defs>
</svg>
