<svg width="40" height="40" viewBox="0 0 40 40" fill="none" xmlns="http://www.w3.org/2000/svg">
<path d="M22.5 6.76655C22.5 4.53988 19.8067 3.42488 18.2333 4.99988L10.7333 12.4999H7.51335C5.61168 12.4999 3.65001 13.6065 3.08001 15.6749C2.69331 17.084 2.49822 18.5387 2.50001 19.9999C2.50001 21.4965 2.70168 22.9465 3.08335 24.3249C3.65168 26.3915 5.61335 27.4999 7.51501 27.4999H10.7317L18.2317 34.9999C19.8067 36.5749 22.5 35.4599 22.5 33.2332V6.76655ZM30.9733 8.50988C31.2077 8.2758 31.5254 8.14431 31.8567 8.14431C32.1879 8.14431 32.5056 8.2758 32.74 8.50988C39.0867 14.8549 39.0867 25.1432 32.74 31.4899C32.5031 31.7107 32.1896 31.8309 31.8658 31.8252C31.542 31.8195 31.233 31.6883 31.004 31.4593C30.775 31.2302 30.6438 30.9213 30.6381 30.5974C30.6323 30.2736 30.7525 29.9602 30.9733 29.7232C32.2503 28.4464 33.2633 26.9305 33.9544 25.2622C34.6455 23.5938 35.0012 21.8057 35.0012 19.9999C35.0012 18.1941 34.6455 16.4059 33.9544 14.7376C33.2633 13.0692 32.2503 11.5534 30.9733 10.2765C30.7393 10.0422 30.6078 9.72446 30.6078 9.39321C30.6078 9.06196 30.7393 8.74426 30.9733 8.50988Z" fill="#35185C"/>
<path d="M26.5534 12.9284C26.6694 12.8123 26.8073 12.7201 26.959 12.6572C27.1107 12.5944 27.2733 12.562 27.4375 12.562C27.6017 12.562 27.7644 12.5944 27.9161 12.6572C28.0678 12.7201 28.2056 12.8123 28.3217 12.9284C29.2505 13.857 29.9872 14.9595 30.4899 16.1729C30.9925 17.3862 31.2512 18.6867 31.2512 20.0001C31.2512 21.3134 30.9925 22.6139 30.4899 23.8273C29.9872 25.0407 29.2505 26.1431 28.3217 27.0717C28.0858 27.2993 27.77 27.4252 27.4423 27.4222C27.1145 27.4192 26.8011 27.2876 26.5694 27.0557C26.3378 26.8238 26.2064 26.5102 26.2038 26.1825C26.2011 25.8548 26.3272 25.5391 26.555 25.3034C27.2515 24.607 27.8039 23.7802 28.1808 22.8702C28.5578 21.9603 28.7518 20.985 28.7518 20.0001C28.7518 19.0152 28.5578 18.0399 28.1808 17.1299C27.8039 16.22 27.2515 15.3932 26.555 14.6967C26.3209 14.4624 26.1895 14.1447 26.1895 13.8134C26.1895 13.4822 26.3209 13.1645 26.555 12.9301L26.5534 12.9284Z" fill="#35185C"/>
</svg>
