<svg width="34" height="34" viewBox="0 0 34 34" fill="none" xmlns="http://www.w3.org/2000/svg">
<path fill-rule="evenodd" clip-rule="evenodd" d="M17 0.75C8.025 0.75 0.75 8.025 0.75 17C0.75 25.975 8.025 33.25 17 33.25C25.975 33.25 33.25 25.975 33.25 17C33.25 8.025 25.975 0.75 17 0.75ZM18.25 7C18.25 6.66848 18.1183 6.35054 17.8839 6.11612C17.6495 5.8817 17.3315 5.75 17 5.75C16.6685 5.75 16.3505 5.8817 16.1161 6.11612C15.8817 6.35054 15.75 6.66848 15.75 7V17C15.75 17.69 16.31 18.25 17 18.25H24.5C24.8315 18.25 25.1495 18.1183 25.3839 17.8839C25.6183 17.6495 25.75 17.3315 25.75 17C25.75 16.6685 25.6183 16.3505 25.3839 16.1161C25.1495 15.8817 24.8315 15.75 24.5 15.75H18.25V7Z" fill="#35185C"/>
</svg>
