<svg width="50" height="50" viewBox="0 0 50 50" fill="none" xmlns="http://www.w3.org/2000/svg">
<path d="M26.5625 26.5625C26.5625 26.9769 26.3979 27.3743 26.1049 27.6674C25.8118 27.9604 25.4144 28.125 25 28.125C24.5856 28.125 24.1882 27.9604 23.8951 27.6674C23.6021 27.3743 23.4375 26.9769 23.4375 26.5625C23.4375 26.1481 23.6021 25.7507 23.8951 25.4576C24.1882 25.1646 24.5856 25 25 25C25.4144 25 25.8118 25.1646 26.1049 25.4576C26.3979 25.7507 26.5625 26.1481 26.5625 26.5625ZM15.625 32.8125C16.0394 32.8125 16.4368 32.6479 16.7299 32.3549C17.0229 32.0618 17.1875 31.6644 17.1875 31.25C17.1875 30.8356 17.0229 30.4382 16.7299 30.1451C16.4368 29.8521 16.0394 29.6875 15.625 29.6875C15.2106 29.6875 14.8132 29.8521 14.5201 30.1451C14.2271 30.4382 14.0625 30.8356 14.0625 31.25C14.0625 31.6644 14.2271 32.0618 14.5201 32.3549C14.8132 32.6479 15.2106 32.8125 15.625 32.8125ZM17.1875 35.9375C17.1875 36.3519 17.0229 36.7493 16.7299 37.0424C16.4368 37.3354 16.0394 37.5 15.625 37.5C15.2106 37.5 14.8132 37.3354 14.5201 37.0424C14.2271 36.7493 14.0625 36.3519 14.0625 35.9375C14.0625 35.5231 14.2271 35.1257 14.5201 34.8326C14.8132 34.5396 15.2106 34.375 15.625 34.375C16.0394 34.375 16.4368 34.5396 16.7299 34.8326C17.0229 35.1257 17.1875 35.5231 17.1875 35.9375ZM20.3125 32.8125C20.7269 32.8125 21.1243 32.6479 21.4174 32.3549C21.7104 32.0618 21.875 31.6644 21.875 31.25C21.875 30.8356 21.7104 30.4382 21.4174 30.1451C21.1243 29.8521 20.7269 29.6875 20.3125 29.6875C19.8981 29.6875 19.5007 29.8521 19.2076 30.1451C18.9146 30.4382 18.75 30.8356 18.75 31.25C18.75 31.6644 18.9146 32.0618 19.2076 32.3549C19.5007 32.6479 19.8981 32.8125 20.3125 32.8125ZM21.875 35.9375C21.875 36.3519 21.7104 36.7493 21.4174 37.0424C21.1243 37.3354 20.7269 37.5 20.3125 37.5C19.8981 37.5 19.5007 37.3354 19.2076 37.0424C18.9146 36.7493 18.75 36.3519 18.75 35.9375C18.75 35.5231 18.9146 35.1257 19.2076 34.8326C19.5007 34.5396 19.8981 34.375 20.3125 34.375C20.7269 34.375 21.1243 34.5396 21.4174 34.8326C21.7104 35.1257 21.875 35.5231 21.875 35.9375ZM25 32.8125C25.4144 32.8125 25.8118 32.6479 26.1049 32.3549C26.3979 32.0618 26.5625 31.6644 26.5625 31.25C26.5625 30.8356 26.3979 30.4382 26.1049 30.1451C25.8118 29.8521 25.4144 29.6875 25 29.6875C24.5856 29.6875 24.1882 29.8521 23.8951 30.1451C23.6021 30.4382 23.4375 30.8356 23.4375 31.25C23.4375 31.6644 23.6021 32.0618 23.8951 32.3549C24.1882 32.6479 24.5856 32.8125 25 32.8125ZM26.5625 35.9375C26.5625 36.3519 26.3979 36.7493 26.1049 37.0424C25.8118 37.3354 25.4144 37.5 25 37.5C24.5856 37.5 24.1882 37.3354 23.8951 37.0424C23.6021 36.7493 23.4375 36.3519 23.4375 35.9375C23.4375 35.5231 23.6021 35.1257 23.8951 34.8326C24.1882 34.5396 24.5856 34.375 25 34.375C25.4144 34.375 25.8118 34.5396 26.1049 34.8326C26.3979 35.1257 26.5625 35.5231 26.5625 35.9375ZM29.6875 32.8125C30.1019 32.8125 30.4993 32.6479 30.7924 32.3549C31.0854 32.0618 31.25 31.6644 31.25 31.25C31.25 30.8356 31.0854 30.4382 30.7924 30.1451C30.4993 29.8521 30.1019 29.6875 29.6875 29.6875C29.2731 29.6875 28.8757 29.8521 28.5826 30.1451C28.2896 30.4382 28.125 30.8356 28.125 31.25C28.125 31.6644 28.2896 32.0618 28.5826 32.3549C28.8757 32.6479 29.2731 32.8125 29.6875 32.8125ZM31.25 35.9375C31.25 36.3519 31.0854 36.7493 30.7924 37.0424C30.4993 37.3354 30.1019 37.5 29.6875 37.5C29.2731 37.5 28.8757 37.3354 28.5826 37.0424C28.2896 36.7493 28.125 36.3519 28.125 35.9375C28.125 35.5231 28.2896 35.1257 28.5826 34.8326C28.8757 34.5396 29.2731 34.375 29.6875 34.375C30.1019 34.375 30.4993 34.5396 30.7924 34.8326C31.0854 35.1257 31.25 35.5231 31.25 35.9375ZM34.375 32.8125C34.7894 32.8125 35.1868 32.6479 35.4799 32.3549C35.7729 32.0618 35.9375 31.6644 35.9375 31.25C35.9375 30.8356 35.7729 30.4382 35.4799 30.1451C35.1868 29.8521 34.7894 29.6875 34.375 29.6875C33.9606 29.6875 33.5632 29.8521 33.2701 30.1451C32.9771 30.4382 32.8125 30.8356 32.8125 31.25C32.8125 31.6644 32.9771 32.0618 33.2701 32.3549C33.5632 32.6479 33.9606 32.8125 34.375 32.8125ZM31.25 26.5625C31.25 26.9769 31.0854 27.3743 30.7924 27.6674C30.4993 27.9604 30.1019 28.125 29.6875 28.125C29.2731 28.125 28.8757 27.9604 28.5826 27.6674C28.2896 27.3743 28.125 26.9769 28.125 26.5625C28.125 26.1481 28.2896 25.7507 28.5826 25.4576C28.8757 25.1646 29.2731 25 29.6875 25C30.1019 25 30.4993 25.1646 30.7924 25.4576C31.0854 25.7507 31.25 26.1481 31.25 26.5625ZM34.375 28.125C34.7894 28.125 35.1868 27.9604 35.4799 27.6674C35.7729 27.3743 35.9375 26.9769 35.9375 26.5625C35.9375 26.1481 35.7729 25.7507 35.4799 25.4576C35.1868 25.1646 34.7894 25 34.375 25C33.9606 25 33.5632 25.1646 33.2701 25.4576C32.9771 25.7507 32.8125 26.1481 32.8125 26.5625C32.8125 26.9769 32.9771 27.3743 33.2701 27.6674C33.5632 27.9604 33.9606 28.125 34.375 28.125Z" fill="#35185C"/>
<path fill-rule="evenodd" clip-rule="evenodd" d="M14.0625 4.6875C14.4769 4.6875 14.8743 4.85212 15.1674 5.14515C15.4604 5.43817 15.625 5.8356 15.625 6.25V9.375H34.375V6.25C34.375 5.8356 34.5396 5.43817 34.8326 5.14515C35.1257 4.85212 35.5231 4.6875 35.9375 4.6875C36.3519 4.6875 36.7493 4.85212 37.0424 5.14515C37.3354 5.43817 37.5 5.8356 37.5 6.25V9.375H39.0625C40.7201 9.375 42.3098 10.0335 43.4819 11.2056C44.654 12.3777 45.3125 13.9674 45.3125 15.625V39.0625C45.3125 40.7201 44.654 42.3098 43.4819 43.4819C42.3098 44.654 40.7201 45.3125 39.0625 45.3125H10.9375C9.2799 45.3125 7.69019 44.654 6.51808 43.4819C5.34598 42.3098 4.6875 40.7201 4.6875 39.0625V15.625C4.6875 13.9674 5.34598 12.3777 6.51808 11.2056C7.69019 10.0335 9.2799 9.375 10.9375 9.375H12.5V6.25C12.5 5.8356 12.6646 5.43817 12.9576 5.14515C13.2507 4.85212 13.6481 4.6875 14.0625 4.6875ZM42.1875 23.4375C42.1875 22.6087 41.8583 21.8138 41.2722 21.2278C40.6862 20.6417 39.8913 20.3125 39.0625 20.3125H10.9375C10.1087 20.3125 9.31384 20.6417 8.72779 21.2278C8.14174 21.8138 7.8125 22.6087 7.8125 23.4375V39.0625C7.8125 39.8913 8.14174 40.6862 8.72779 41.2722C9.31384 41.8583 10.1087 42.1875 10.9375 42.1875H39.0625C39.8913 42.1875 40.6862 41.8583 41.2722 41.2722C41.8583 40.6862 42.1875 39.8913 42.1875 39.0625V23.4375Z" fill="#35185C"/>
</svg>
