<svg width="58" height="40" viewBox="0 0 58 40" fill="none" xmlns="http://www.w3.org/2000/svg">
<path d="M46.4838 36.7889C44.2873 36.7849 42.1819 35.919 40.6286 34.3808C39.0752 32.8426 38.2006 30.7575 38.1961 28.5819C38.1979 27.171 38.5671 25.7844 39.2679 24.556C39.9687 23.3277 40.9776 22.2991 42.197 21.5698L42.234 21.5498L44.9696 29.1202C45.1984 29.7467 45.7923 30.1866 46.4905 30.1866C46.6784 30.1853 46.8646 30.1515 47.0407 30.0867L47.0289 30.09C47.2291 30.0185 47.4131 29.9086 47.5703 29.7666C47.7276 29.6246 47.855 29.4533 47.9453 29.2624C48.0356 29.0716 48.0871 28.865 48.0967 28.6544C48.1063 28.4438 48.0739 28.2335 48.0013 28.0353L48.0047 28.047L45.2691 20.4716C45.6308 20.4133 46.0497 20.3766 46.4754 20.3733H46.4804C48.6769 20.3773 50.7823 21.2431 52.3357 22.7813C53.889 24.3195 54.7636 26.4047 54.7681 28.5803C54.7645 30.7554 53.8909 32.8421 52.3385 34.3806C50.7861 35.9191 48.6815 36.7857 46.4855 36.7905L46.4838 36.7889ZM28.179 25.5574L22.9231 15.1208L36.6954 14.416L28.179 25.5574ZM22.9231 26.9789C22.494 24.005 20.8987 21.3185 18.4831 19.5018L18.4545 19.4818L20.0596 16.6056L25.2835 26.9789H22.9231ZM14.267 26.9789L16.8731 22.313C18.2941 23.4993 19.2721 25.1234 19.6508 26.9255L19.6592 26.9789H14.267ZM11.528 36.7889C9.33149 36.7849 7.22608 35.919 5.67276 34.3808C4.11944 32.8426 3.2448 30.7575 3.24036 28.5819C3.24436 26.4064 4.11857 24.321 5.67157 22.7825C7.22458 21.244 9.32981 20.3777 11.5263 20.3733C12.4281 20.3733 13.2945 20.5166 14.1055 20.7816L14.0466 20.7649L10.1148 27.8154C9.97716 28.0597 9.90718 28.3357 9.91191 28.6155C9.91664 28.8952 9.9959 29.1688 10.1417 29.4084L10.1383 29.4018C10.4243 29.8767 10.9391 30.1883 11.528 30.19H19.6508C18.86 33.9793 15.5187 36.7872 11.5162 36.7889H11.528ZM46.4888 17.1672H46.4754C45.6577 17.1672 44.8602 17.2522 44.0897 17.4121L44.1654 17.3988L38.8927 2.80457C38.8047 2.56488 38.6604 2.34936 38.4717 2.1758C38.283 2.00224 38.0553 1.87563 37.8075 1.80641L37.7957 1.80307L31.3352 0.0566995C30.9234 -0.0548839 30.4837 -0.000424662 30.1123 0.20817C29.7409 0.416764 29.468 0.762523 29.3533 1.16985L29.3499 1.18151C29.2382 1.58849 29.2932 2.02273 29.503 2.38973C29.7129 2.75673 30.0606 3.0268 30.4704 3.14118L30.4822 3.14452L36.1352 4.67093L38.4737 11.1248L21.3567 11.9997L20.7191 10.7366H22.5866C22.7987 10.7372 23.0088 10.6964 23.2048 10.6163C23.4009 10.5362 23.579 10.4185 23.729 10.27C23.8789 10.1215 23.9977 9.94503 24.0786 9.75084C24.1594 9.55666 24.2007 9.34856 24.2 9.13851C24.2 8.71424 24.0299 8.30567 23.727 8.00566C23.4241 7.70565 23.0133 7.53711 22.5849 7.53711H13.2979C12.8695 7.53711 12.4587 7.70565 12.1558 8.00566C11.8529 8.30567 11.6828 8.71257 11.6828 9.13684C11.6821 9.34689 11.7234 9.55666 11.8042 9.75084C11.8851 9.94503 12.0039 10.1215 12.1539 10.27C12.3038 10.4185 12.4819 10.5362 12.678 10.6163C12.874 10.6964 13.0842 10.7372 13.2962 10.7366H17.0951L18.3065 13.1362L15.6264 17.9354C14.3194 17.4315 12.9288 17.1737 11.5263 17.1755C8.47206 17.1781 5.54187 18.3805 3.38141 20.5188C1.22094 22.6571 0.00489917 25.5568 0 28.5819C0.00311607 31.6078 1.21785 34.5105 3.37774 36.6504C5.53762 38.7904 8.46628 39.9944 11.5213 39.9983C14.2836 39.9935 16.9525 39.0066 19.0422 37.2172C21.1319 35.4278 22.5037 32.9549 22.9079 30.2483L22.9147 30.1866H27.8879C28.1362 30.1867 28.3813 30.1301 28.6039 30.0211C28.8265 29.9122 29.0208 29.7538 29.1716 29.5584L29.175 29.5551L39.998 15.3925L41.1185 18.4953C37.4306 20.4466 34.9625 24.231 34.9575 28.5852V28.5869C34.9606 31.6126 36.1754 34.5135 38.3353 36.6532C40.4952 38.7928 43.4239 39.9965 46.4787 40C49.5333 39.9965 52.4617 38.7931 54.6216 36.6538C56.7814 34.5145 57.9964 31.614 58 28.5886C57.996 25.5635 56.7808 22.6634 54.621 20.5245C52.4611 18.3855 49.533 17.1824 46.4787 17.1788L46.4888 17.1672Z" fill="#35185C"/>
</svg>
