<svg width="40" height="40" viewBox="0 0 40 40" fill="none" xmlns="http://www.w3.org/2000/svg">
<path d="M17.499 0C14.847 0 12.3036 1.05351 10.4283 2.92877C8.55309 4.80403 7.49958 7.34742 7.49958 9.99944C7.49958 12.6515 8.55309 15.1949 10.4283 17.0701C12.3036 18.9454 14.847 19.9989 17.499 19.9989C20.151 19.9989 22.6944 18.9454 24.5697 17.0701C26.445 15.1949 27.4985 12.6515 27.4985 9.99944C27.4985 7.34742 26.445 4.80403 24.5697 2.92877C22.6944 1.05351 20.151 0 17.499 0ZM5.02222 22.4987C4.36385 22.4961 3.71143 22.6235 3.10239 22.8735C2.49334 23.1236 1.93965 23.4914 1.47307 23.9559C1.00648 24.4204 0.636176 24.9724 0.383394 25.5803C0.130612 26.1882 0.000323762 26.8401 0 27.4985C0 31.7257 2.08238 34.9131 5.3372 36.9904C8.54202 39.0328 12.8618 39.9978 17.499 39.9978C18.2165 39.9978 18.9264 39.9728 19.6239 39.9278L16.0991 36.4005C15.7506 36.0522 15.4742 35.6388 15.2856 35.1837C15.097 34.7285 15 34.2407 15 33.7481C15 33.2555 15.097 32.7677 15.2856 32.3126C15.4742 31.8575 15.7506 31.444 16.0991 31.0958L21.0988 26.096C21.7005 25.4957 22.4883 25.1175 23.3331 25.0236C24.1779 24.9297 25.0295 25.1256 25.7484 25.5792C26.4672 26.0327 27.0107 26.7171 27.2896 27.52C27.5685 28.3229 27.5663 29.1968 27.2835 29.9983H30.2083C29.9909 29.3837 29.9376 28.723 30.0535 28.0814C30.1694 27.4398 30.4506 26.8396 30.8693 26.3398C31.288 25.8401 31.8298 25.4582 32.4412 25.2318C33.0525 25.0053 33.7124 24.9422 34.3556 25.0486C33.9209 24.2752 33.2882 23.6314 32.5224 23.1833C31.7567 22.7352 30.8855 22.4989 29.9983 22.4987H5.02222ZM24.6336 39.6328C24.5175 39.7492 24.3796 39.8415 24.2277 39.9046C24.0759 39.9676 23.9131 40 23.7487 40C23.5843 40 23.4215 39.9676 23.2696 39.9046C23.1178 39.8415 22.9798 39.7492 22.8637 39.6328L17.864 34.6331C17.7476 34.517 17.6552 34.379 17.5922 34.2272C17.5292 34.0753 17.4968 33.9125 17.4968 33.7481C17.4968 33.5837 17.5292 33.4209 17.5922 33.2691C17.6552 33.1172 17.7476 32.9793 17.864 32.8632L22.8637 27.8634C23.0984 27.6287 23.4168 27.4969 23.7487 27.4969C24.0806 27.4969 24.3989 27.6287 24.6336 27.8634C24.8683 28.0981 25.0002 28.4165 25.0002 28.7484C25.0002 29.0803 24.8683 29.3986 24.6336 29.6333L21.7663 32.4982H35.7305L32.8632 29.6333C32.6285 29.3986 32.4966 29.0803 32.4966 28.7484C32.4966 28.4165 32.6285 28.0981 32.8632 27.8634C33.0979 27.6287 33.4162 27.4969 33.7481 27.4969C34.08 27.4969 34.3984 27.6287 34.6331 27.8634L39.6328 32.8632C39.7492 32.9793 39.8415 33.1172 39.9046 33.2691C39.9676 33.4209 40 33.5837 40 33.7481C40 33.9125 39.9676 34.0753 39.9046 34.2272C39.8415 34.379 39.7492 34.517 39.6328 34.6331L34.6331 39.6328C34.3984 39.8675 34.08 39.9993 33.7481 39.9993C33.4162 39.9993 33.0979 39.8675 32.8632 39.6328C32.6285 39.3981 32.4966 39.0798 32.4966 38.7478C32.4966 38.4159 32.6285 38.0976 32.8632 37.8629L35.7305 34.998H21.7663L24.6336 37.8629C24.75 37.979 24.8424 38.1169 24.9054 38.2688C24.9684 38.4206 25.0008 38.5834 25.0008 38.7478C25.0008 38.9122 24.9684 39.075 24.9054 39.2269C24.8424 39.3787 24.75 39.5167 24.6336 39.6328Z" fill="#35185C"/>
</svg>
