<svg width="36" height="40" viewBox="0 0 36 40" fill="none" xmlns="http://www.w3.org/2000/svg">
<path d="M34.0714 0C34.5375 1.74697e-05 34.9877 0.150042 35.339 0.42233C35.6902 0.694618 35.9186 1.07075 35.982 1.48116L36 1.71431V38.2862C35.9999 38.7206 35.8142 39.1387 35.4806 39.456C35.1471 39.7734 34.6904 39.9664 34.2029 39.996C33.7154 40.0256 33.2334 39.8896 32.8544 39.6155C32.4753 39.3414 32.2275 38.9496 32.1609 38.5194L32.1429 38.2862V26.8575H26.3571C25.8911 26.8575 25.4408 26.7075 25.0896 26.4352C24.7384 26.1629 24.51 25.7867 24.4466 25.3763L24.4286 25.1432V8.57154C24.4286 6.29823 25.4445 4.11802 27.2529 2.51055C29.0613 0.90307 31.514 0 34.0714 0ZM18.6429 0C19.1089 1.74697e-05 19.5592 0.150042 19.9104 0.42233C20.2616 0.694618 20.49 1.07075 20.5534 1.48116L20.5714 1.71431V10.8573C20.5714 15.3213 16.9714 19.0357 12.2143 19.8403V38.2862C12.2141 38.7206 12.0285 39.1387 11.6949 39.456C11.3613 39.7734 10.9047 39.9664 10.4172 39.996C9.92967 40.0256 9.44771 39.8896 9.06866 39.6155C8.68961 39.3414 8.44175 38.9496 8.37514 38.5194L8.35714 38.2862V19.8403C6.09626 19.456 4.04558 18.4091 2.53292 16.8668C1.02025 15.3246 0.132952 13.376 0.0128574 11.3327L0 10.8573V1.71431C0.000149767 1.27996 0.185771 0.861861 0.519358 0.544483C0.852944 0.227106 1.30963 0.0341172 1.79712 0.0045123C2.28462 -0.0250926 2.76658 0.110893 3.14563 0.384994C3.52467 0.659094 3.77254 1.05087 3.83914 1.48116L3.85714 1.71431V10.8573C3.85714 13.4173 5.74971 15.5819 8.35714 16.3111V1.71431C8.35729 1.27996 8.54292 0.861861 8.8765 0.544483C9.21009 0.227106 9.66677 0.0341172 10.1543 0.0045123C10.6418 -0.0250926 11.1237 0.110893 11.5028 0.384994C11.8818 0.659094 12.1297 1.05087 12.1963 1.48116L12.2143 1.71431V16.3088C13.4414 15.965 14.5243 15.3021 15.3233 14.4057C16.1222 13.5093 16.6005 12.4206 16.6963 11.2801L16.7143 10.8573V1.71431C16.7143 1.25965 16.9175 0.823604 17.2792 0.502109C17.6408 0.180614 18.1314 0 18.6429 0ZM32.1429 23.4289V3.72119C31.0858 4.05374 30.1601 4.65195 29.4781 5.44317C28.7961 6.23439 28.3873 7.18459 28.3011 8.17839L28.2857 8.57154V23.4289H32.1429Z" fill="#35185C"/>
</svg>
