<svg width="44" height="44" viewBox="0 0 44 44" fill="none" xmlns="http://www.w3.org/2000/svg">
<path d="M25.0923 2H10.1026C9.02811 2 7.99764 2.42143 7.23788 3.17157C6.47812 3.92172 6.05129 4.93913 6.05129 6V38C6.05129 39.0609 6.47812 40.0783 7.23788 40.8284C7.99764 41.5786 9.02811 42 10.1026 42H34.4103C35.4848 42 36.5152 41.5786 37.275 40.8284C38.0347 40.0783 38.4616 39.0609 38.4616 38V23.2M2 10H10.1026M2 18H10.1026M2 26H10.1026M2 34H10.1026" stroke="#35185C" stroke-width="4" stroke-linecap="round" stroke-linejoin="round"/>
<path d="M35.2205 3.19998C36.0648 2.66186 37.0705 2.42567 38.0698 2.53076C39.0691 2.63585 40.0018 3.07587 40.7125 3.77751C41.4231 4.47915 41.8688 5.40003 41.9752 6.38671C42.0816 7.3734 41.8424 8.3663 41.2974 9.19998L30.3589 20L22.2563 22L24.282 14L35.2205 3.19998Z" stroke="#35185C" stroke-width="4" stroke-linecap="round" stroke-linejoin="round"/>
</svg>
