<svg width="54" height="40" viewBox="0 0 54 40" fill="none" xmlns="http://www.w3.org/2000/svg">
<path d="M37.8 34.6667V40H0V34.6667C0 34.6667 0 24.0001 18.9 24.0001C37.8 24.0001 37.8 34.6667 37.8 34.6667ZM28.35 9.33344C28.35 7.48749 27.7958 5.68299 26.7574 4.14814C25.719 2.61328 24.2431 1.41701 22.5164 0.710596C20.7896 0.00418042 18.8895 -0.18065 17.0564 0.179477C15.2233 0.539605 13.5394 1.42852 12.2178 2.7338C10.8962 4.03909 9.99621 5.70212 9.63158 7.51261C9.26695 9.32309 9.45409 11.1997 10.1693 12.9051C10.8846 14.6106 12.0958 16.0682 13.6499 17.0938C15.2039 18.1194 17.031 18.6667 18.9 18.6667C21.4063 18.6667 23.8099 17.6834 25.5822 15.9331C27.3544 14.1827 28.35 11.8088 28.35 9.33344ZM37.638 24.0001C39.2978 25.2687 40.656 26.8812 41.6169 28.7241C42.5779 30.5669 43.1182 32.5954 43.2 34.6667V40H54V34.6667C54 34.6667 54 24.9867 37.638 24.0001ZM35.1 0.00014021C33.2416 -0.0100803 31.424 0.538687 29.889 1.57347C31.5291 3.83676 32.411 6.55021 32.411 9.33344C32.411 12.1167 31.5291 14.8301 29.889 17.0934C31.424 18.1282 33.2416 18.677 35.1 18.6667C37.6063 18.6667 40.0099 17.6834 41.7822 15.9331C43.5544 14.1827 44.55 11.8088 44.55 9.33344C44.55 6.8581 43.5544 4.48413 41.7822 2.7338C40.0099 0.983468 37.6063 0.00014021 35.1 0.00014021Z" fill="#35185C"/>
</svg>
